<svg xmlns:xlink="http://www.w3.org/1999/xlink" xmlns="http://www.w3.org/2000/svg" aria-hidden="true" fill="none" focusable="false" height="24" role="presentation" viewBox="0 0 24 24" width="24" class="text-pink-500"><path d="M18 18.86h-.76c-.8 0-1.56.31-2.12.87l-1.71 1.69c-.78.77-2.05.77-2.83 0l-1.71-1.69c-.56-.56-1.33-.87-2.12-.87H6c-1.66 0-3-1.33-3-2.97V4.98c0-1.64 1.34-2.97 3-2.97h12c1.66 0 3 1.33 3 2.97v10.91c0 1.63-1.34 2.97-3 2.97Z" stroke="#FF4ECD" stroke-linecap="round" stroke-linejoin="round" stroke-miterlimit="10" stroke-width="1.5px" fill="none"></path><path d="M12 10a2.33 2.33 0 1 0 0-4.66A2.33 2.33 0 0 0 12 10ZM16 15.66c0-1.8-1.79-3.26-4-3.26s-4 1.46-4 3.26" stroke="#FF4ECD" stroke-linecap="round" stroke-linejoin="round" stroke-width="1.5px" fill="none"></path></svg>