<svg xmlns:xlink="http://www.w3.org/1999/xlink" xmlns="http://www.w3.org/2000/svg" aria-hidden="true" focusable="false"  role="presentation" viewBox="0 0 24 24"  class="z-0 absolute left-1.5 rtl:right-1.5 rtl:left-[unset] text-medium opacity-0 scale-50 transition-transform-opacity group-data-[selected=true]:scale-100 group-data-[selected=true]:opacity-100 text-white" width="1"  height="1" ><g fill="#FFFFFF"><path d="M19 12a7 7 0 11-7-7 7 7 0 017 7z" fill="#FFFFFF"></path><path d="M12 22.96a.969.969 0 01-1-.96v-.08a1 1 0 012 0 1.038 1.038 0 01-1 1.04zm7.14-2.82a1.024 1.024 0 01-.71-.29l-.13-.13a1 1 0 011.41-1.41l.13.13a1 1 0 010 1.41.984.984 0 01-.7.29zm-14.28 0a1.024 1.024 0 01-.71-.29 1 1 0 010-1.41l.13-.13a1 1 0 011.41 1.41l-.13.13a1 1 0 01-.7.29zM22 13h-.08a1 1 0 010-2 1.038 1.038 0 011.04 1 .969.969 0 01-.96 1zM2.08 13H2a1 1 0 010-2 1.038 1.038 0 011.04 1 .969.969 0 01-.96 1zm16.93-7.01a1.024 1.024 0 01-.71-.29 1 1 0 010-1.41l.13-.13a1 1 0 011.41 1.41l-.13.13a.984.984 0 01-.7.29zm-14.02 0a1.024 1.024 0 01-.71-.29l-.13-.14a1 1 0 011.41-1.41l.13.13a1 1 0 010 1.41.97.97 0 01-.7.3zM12 3.04a.969.969 0 01-1-.96V2a1 1 0 012 0 1.038 1.038 0 01-1 1.04z" fill="#FFFFFF"></path></g></svg>